<svg width="91" height="90" viewBox="0 0 91 90" fill="none" xmlns="http://www.w3.org/2000/svg">
<path d="M76.1023 74.5719C75.4701 74.7469 74.8447 74.8622 74.2221 74.9558C75.2517 75.5861 75.7826 76.1812 75.7826 76.6787C75.7826 78.719 67.0257 82.3524 50.7338 83.5476C47.7502 84.6582 44.3374 85.3912 40.5186 85.3912C36.3479 85.3912 32.5015 84.5804 29.4211 83.6222C12.4717 82.5075 3.34991 78.761 3.34991 76.6787C3.34991 75.4148 6.71338 73.5426 13.1288 72.0142C12.4265 71.0483 11.7618 70.0431 11.1391 69.0039C4.45509 70.7413 0 73.2804 0 76.6791C0 79.1961 2.43872 81.2432 6.41809 82.8363C7.50247 85.4084 14.829 87.6075 25.2102 88.7683C25.274 89.4701 25.7764 90.0005 29.9285 90.0005H49.0833C53.5804 90.0005 54.1271 89.4701 54.1936 88.7683C64.7638 87.5853 72.1695 85.3293 73.0463 82.6984C76.8245 81.1202 79.1361 79.1242 79.1361 76.6787C79.1361 75.6829 78.7405 74.7618 78.0332 73.9139C77.3943 74.1703 76.753 74.3937 76.1023 74.5719Z" fill="url(#paint0_linear_4693_12280)"/>
<path d="M87.462 48.9015C85.8459 47.809 84.0927 47.1908 82.2477 47.0457C79.4676 46.8295 76.8177 47.7534 74.5806 48.9834C74.5901 48.6668 74.6001 48.3525 74.6064 48.036H74.6118V42.043C74.6118 44.9601 59.6281 47.3265 41.1444 47.3265C22.6625 47.3265 7.68152 44.9601 7.68152 42.043V48.036H7.68513C7.7715 60.1437 14.2511 73.4072 23.8975 79.2469C23.8947 79.2714 31.5727 83.7513 41.0653 83.7513C55.5818 83.7513 63.934 72.4427 64.1931 72.037C65.8825 73.2263 67.7976 73.934 69.8596 74.0927C71.3198 74.2058 72.8442 74.043 74.3907 73.622C82.2947 71.4352 89.3423 62.837 90.3625 56.6029C90.911 53.2652 89.8777 50.5294 87.462 48.9015ZM37.1537 78.5017C30.0573 78.442 24.3474 75.0446 24.3474 75.0256C17.1759 70.6027 12.4143 60.6456 12.4242 51.5957H12.4215L12.4613 47.1162C12.4518 48.1056 14.7567 49.0308 18.5669 49.7521L18.5511 51.6459H18.5538C18.5443 60.6999 23.3019 70.651 30.4797 75.0758C30.4761 75.0944 34.5608 77.5277 40.1188 78.31C39.1719 78.442 38.1802 78.5107 37.1537 78.5017ZM84.8547 55.7013C84.1438 60.0569 78.4904 66.706 72.9066 68.2426C71.006 68.7631 69.3744 68.6243 67.9491 67.8248C70.4073 64.5391 72.2708 60.7872 73.3932 56.7246C75.2454 54.9913 78.7214 52.4106 81.857 52.6471C82.7578 52.7185 83.5722 53.003 84.3396 53.5239C84.5562 53.6682 85.1251 54.0539 84.8547 55.7013Z" fill="url(#paint1_linear_4693_12280)"/>
<path d="M9.61468 42.3754C14.4342 40.5558 26.7328 39.2643 41.1444 39.2643C55.5565 39.2643 67.8528 40.5553 72.6723 42.3754C73.924 41.8201 74.6118 41.2241 74.6118 40.6005C74.6118 37.6825 59.6282 35.3184 41.1444 35.3184C22.6625 35.3184 7.68152 37.6825 7.68152 40.6005C7.68107 41.2241 8.36479 41.8197 9.61468 42.3754Z" fill="url(#paint2_linear_4693_12280)"/>
<path d="M34.3397 34.6403C34.3397 34.6403 29.5898 27.046 36.4727 21.5871C43.3512 16.1308 37.3179 6.64453 32.7421 6.64453C32.7421 6.64453 44.5418 6.88104 44.5418 16.3705C44.5418 25.8617 32.9135 27.4241 34.3397 34.6403Z" fill="url(#paint3_linear_4693_12280)"/>
<path d="M47.558 27.9944C47.558 27.9944 42.8144 20.4078 49.691 14.9448C56.5767 9.4899 50.5371 0 45.964 0C45.964 0 57.7592 0.233336 57.7592 9.72821C57.7587 19.2145 46.1349 20.7768 47.558 27.9944Z" fill="url(#paint4_linear_4693_12280)"/>
<defs>
<linearGradient id="paint0_linear_4693_12280" x1="28.1707" y1="75.8278" x2="99.4674" y2="103.605" gradientUnits="userSpaceOnUse">
<stop stop-color="#1B67F8"/>
<stop offset="1" stop-color="#043083"/>
</linearGradient>
<linearGradient id="paint1_linear_4693_12280" x1="37.1653" y1="55.5982" x2="119.637" y2="72.5274" gradientUnits="userSpaceOnUse">
<stop stop-color="#1B67F8"/>
<stop offset="1" stop-color="#043083"/>
</linearGradient>
<linearGradient id="paint2_linear_4693_12280" x1="31.5073" y1="37.6119" x2="66.9216" y2="72.3316" gradientUnits="userSpaceOnUse">
<stop stop-color="#1B67F8"/>
<stop offset="1" stop-color="#043083"/>
</linearGradient>
<linearGradient id="paint3_linear_4693_12280" x1="36.9425" y1="15.7432" x2="49.1638" y2="16.2756" gradientUnits="userSpaceOnUse">
<stop stop-color="#1B67F8"/>
<stop offset="1" stop-color="#043083"/>
</linearGradient>
<linearGradient id="paint4_linear_4693_12280" x1="50.1625" y1="9.09819" x2="62.3796" y2="9.63032" gradientUnits="userSpaceOnUse">
<stop stop-color="#1B67F8"/>
<stop offset="1" stop-color="#043083"/>
</linearGradient>
</defs>
</svg>
