<svg width="24" height="24" viewBox="0 0 24 24" fill="none" xmlns="http://www.w3.org/2000/svg">
<path d="M6.9375 3C7.08668 3 7.22976 3.05926 7.33525 3.16475C7.44074 3.27024 7.5 3.41332 7.5 3.5625V4.125H16.5V3.5625C16.5 3.41332 16.5593 3.27024 16.6648 3.16475C16.7702 3.05926 16.9133 3 17.0625 3C17.2117 3 17.3548 3.05926 17.4602 3.16475C17.5657 3.27024 17.625 3.41332 17.625 3.5625V4.125H18.75C19.3467 4.125 19.919 4.36205 20.341 4.78401C20.7629 5.20597 21 5.77826 21 6.375V18.75C21 19.3467 20.7629 19.919 20.341 20.341C19.919 20.7629 19.3467 21 18.75 21H5.25C4.65326 21 4.08097 20.7629 3.65901 20.341C3.23705 19.919 3 19.3467 3 18.75V6.375C3 5.77826 3.23705 5.20597 3.65901 4.78401C4.08097 4.36205 4.65326 4.125 5.25 4.125H6.375V3.5625C6.375 3.41332 6.43426 3.27024 6.53975 3.16475C6.64524 3.05926 6.78832 3 6.9375 3ZM5.25 5.25C4.95163 5.25 4.66548 5.36853 4.4545 5.5795C4.24353 5.79048 4.125 6.07663 4.125 6.375V18.75C4.125 19.0484 4.24353 19.3345 4.4545 19.5455C4.66548 19.7565 4.95163 19.875 5.25 19.875H18.75C19.0484 19.875 19.3345 19.7565 19.5455 19.5455C19.7565 19.3345 19.875 19.0484 19.875 18.75V6.375C19.875 6.07663 19.7565 5.79048 19.5455 5.5795C19.3345 5.36853 19.0484 5.25 18.75 5.25H5.25Z" fill="white"/>
<path d="M5.25 5.25C4.95163 5.25 4.66548 5.36853 4.4545 5.5795C4.24353 5.79048 4.125 6.07663 4.125 6.375V18.75C4.125 19.0484 4.24353 19.3345 4.4545 19.5455C4.66548 19.7565 4.95163 19.875 5.25 19.875H18.75C19.0484 19.875 19.3345 19.7565 19.5455 19.5455C19.7565 19.3345 19.875 19.0484 19.875 18.75V6.375C19.875 6.07663 19.7565 5.79048 19.5455 5.5795C19.3345 5.36853 19.0484 5.25 18.75 5.25H5.25Z" fill="#0755E9"/>
<path d="M15.375 11.4375C15.375 11.2883 15.4343 11.1452 15.5398 11.0398C15.6452 10.9343 15.7883 10.875 15.9375 10.875H17.0625C17.2117 10.875 17.3548 10.9343 17.4602 11.0398C17.5657 11.1452 17.625 11.2883 17.625 11.4375V12.5625C17.625 12.7117 17.5657 12.8548 17.4602 12.9602C17.3548 13.0657 17.2117 13.125 17.0625 13.125H15.9375C15.7883 13.125 15.6452 13.0657 15.5398 12.9602C15.4343 12.8548 15.375 12.7117 15.375 12.5625V11.4375Z" fill="white"/>
<path d="M5.8125 7.5C5.8125 7.35082 5.87176 7.20774 5.97725 7.10225C6.08274 6.99676 6.22582 6.9375 6.375 6.9375H17.625C17.7742 6.9375 17.9173 6.99676 18.0227 7.10225C18.1282 7.20774 18.1875 7.35082 18.1875 7.5V8.625C18.1875 8.77418 18.1282 8.91726 18.0227 9.02275C17.9173 9.12824 17.7742 9.1875 17.625 9.1875H6.375C6.22582 9.1875 6.08274 9.12824 5.97725 9.02275C5.87176 8.91726 5.8125 8.77418 5.8125 8.625V7.5Z" fill="white"/>
</svg>
