<svg width="64" height="64" viewBox="0 0 64 64" fill="none" xmlns="http://www.w3.org/2000/svg">
<path fill-rule="evenodd" clip-rule="evenodd" d="M31.6667 63.3333C14.1772 63.3333 0 49.1562 0 31.6667C0 14.1772 14.1772 0 31.6667 0C49.1562 0 63.3333 14.1772 63.3333 31.6667C63.3333 49.1562 49.1562 63.3333 31.6667 63.3333ZM29.2505 13.0973L29.5988 37.1513H33.7313L34.0797 13.0973H29.2505ZM31.654 47.8262C33.2753 47.8262 34.5103 46.6133 34.5103 45.0332C34.5103 43.4498 33.2753 42.2402 31.654 42.2402C31.2833 42.2334 30.9149 42.3007 30.5705 42.4381C30.2262 42.5756 29.9127 42.7803 29.6484 43.0404C29.3842 43.3006 29.1745 43.6108 29.0317 43.953C28.8889 44.2951 28.8158 44.6624 28.8167 45.0332C28.8167 46.6133 30.0707 47.8262 31.654 47.8262Z" fill="#E90761"/>
</svg>
